{
	"asset":{
		"generator":"Khronos glTF Blender I/O v3.5.30",
		"version":"2.0"
	},
	"extensionsUsed":[
		"KHR_materials_emissive_strength"
	],
	"scene":0,
	"scenes":[
		{
			"name":"Scene",
			"nodes":[
				0,
				1,
				2,
				3,
				4,
				5,
				6,
				7,
				8,
				9,
				10,
				11,
				12,
				13,
				14,
				15,
				16,
				17,
				18,
				19,
				20,
				21,
				22,
				23,
				24,
				25,
				26,
				27,
				28,
				29,
				30,
				31,
				32,
				33,
				34,
				35
			]
		}
	],
	"nodes":[
		{
			"mesh":0,
			"name":"Plane",
			"rotation":[
				0.35952895879745483,
				0.6076272130012512,
				-0.36562761664390564,
				0.6065018773078918
			],
			"scale":[
				1.5718817710876465,
				1.2589963674545288,
				1.2325794696807861
			],
			"translation":[
				-20.581867218017578,
				7.714712142944336,
				-11.890401840209961
			]
		},
		{
			"mesh":1,
			"name":"Cylinder.030",
			"rotation":[
				0.0544467531144619,
				0.7050074934959412,
				-0.0544467531144619,
				0.7050074934959412
			],
			"scale":[
				0.16554394364356995,
				0.04321623221039772,
				0.16554394364356995
			],
			"translation":[
				-18.633920669555664,
				6.584860801696777,
				-10.3964204788208
			]
		},
		{
			"mesh":2,
			"name":"Cylinder.029",
			"rotation":[
				0.05583328381180763,
				0.7048990726470947,
				-0.05583328381180763,
				0.70489901304245
			],
			"scale":[
				-0.16741161048412323,
				-0.16741161048412323,
				-0.16741161048412323
			],
			"translation":[
				-19.204748153686523,
				6.505612850189209,
				-10.705331802368164
			]
		},
		{
			"mesh":2,
			"name":"Cylinder.028",
			"rotation":[
				0.05583328381180763,
				0.7048990726470947,
				-0.05583328381180763,
				0.70489901304245
			],
			"scale":[
				-0.16741161048412323,
				-0.16741161048412323,
				-0.16741161048412323
			],
			"translation":[
				-18.75396728515625,
				6.438399314880371,
				-10.793805122375488
			]
		},
		{
			"mesh":2,
			"name":"Cylinder.027",
			"rotation":[
				0.05583328381180763,
				0.7048990726470947,
				-0.05583328381180763,
				0.70489901304245
			],
			"scale":[
				-0.16741161048412323,
				-0.16741161048412323,
				-0.16741161048412323
			],
			"translation":[
				-18.84766960144043,
				6.453563690185547,
				-11.008386611938477
			]
		},
		{
			"mesh":2,
			"name":"Cylinder.026",
			"rotation":[
				0.05583328381180763,
				0.7048990726470947,
				-0.05583328381180763,
				0.70489901304245
			],
			"scale":[
				-0.16741161048412323,
				-0.16741161048412323,
				-0.16741161048412323
			],
			"translation":[
				-18.918954849243164,
				6.462656021118164,
				-11.223245620727539
			]
		},
		{
			"mesh":2,
			"name":"Cylinder.025",
			"rotation":[
				0.05583328381180763,
				0.7048990726470947,
				-0.05583328381180763,
				0.70489901304245
			],
			"scale":[
				-0.16741161048412323,
				-0.16741161048412323,
				-0.16741161048412323
			],
			"translation":[
				-18.962697982788086,
				6.473801136016846,
				-11.42809772491455
			]
		},
		{
			"mesh":2,
			"name":"Cylinder.024",
			"rotation":[
				0.05583328381180763,
				0.7048990726470947,
				-0.05583328381180763,
				0.70489901304245
			],
			"scale":[
				-0.16741161048412323,
				-0.16741161048412323,
				-0.16741161048412323
			],
			"translation":[
				-18.476123809814453,
				6.392348289489746,
				-10.850177764892578
			]
		},
		{
			"mesh":2,
			"name":"Cylinder.023",
			"rotation":[
				0.05583328381180763,
				0.7048990726470947,
				-0.05583328381180763,
				0.70489901304245
			],
			"scale":[
				-0.16741161048412323,
				-0.16741161048412323,
				-0.16741161048412323
			],
			"translation":[
				-18.570255279541016,
				6.407346248626709,
				-11.06241226196289
			]
		},
		{
			"mesh":2,
			"name":"Cylinder.022",
			"rotation":[
				0.05583328381180763,
				0.7048990726470947,
				-0.05583328381180763,
				0.70489901304245
			],
			"scale":[
				-0.16741161048412323,
				-0.16741161048412323,
				-0.16741161048412323
			],
			"translation":[
				-18.63178825378418,
				6.418886184692383,
				-11.287945747375488
			]
		},
		{
			"mesh":2,
			"name":"Cylinder.021",
			"rotation":[
				0.05583328381180763,
				0.7048990726470947,
				-0.05583328381180763,
				0.70489901304245
			],
			"scale":[
				-0.16741161048412323,
				-0.16741161048412323,
				-0.16741161048412323
			],
			"translation":[
				-18.676504135131836,
				6.423931121826172,
				-11.4927978515625
			]
		},
		{
			"mesh":2,
			"name":"Cylinder.020",
			"rotation":[
				0.05583328381180763,
				0.7048990726470947,
				-0.05583328381180763,
				0.70489901304245
			],
			"scale":[
				-0.16741161048412323,
				-0.16741161048412323,
				-0.16741161048412323
			],
			"translation":[
				-19.204748153686523,
				6.505612850189209,
				-12.599527359008789
			]
		},
		{
			"mesh":3,
			"name":"Cylinder.019",
			"rotation":[
				0.0544467531144619,
				0.7050074934959412,
				-0.0544467531144619,
				0.7050074934959412
			],
			"scale":[
				0.16554394364356995,
				0.04321623221039772,
				0.16554394364356995
			],
			"translation":[
				-18.633920669555664,
				6.584860801696777,
				-12.290616035461426
			]
		},
		{
			"mesh":3,
			"name":"Cylinder.018",
			"rotation":[
				0.0544467531144619,
				0.7050074934959412,
				-0.0544467531144619,
				0.7050074934959412
			],
			"scale":[
				0.16554394364356995,
				0.04321623221039772,
				0.16554394364356995
			],
			"translation":[
				-18.633920669555664,
				6.584860801696777,
				-10.3964204788208
			]
		},
		{
			"mesh":4,
			"name":"Cylinder.017",
			"rotation":[
				0.05583328381180763,
				0.7048990726470947,
				-0.05583328381180763,
				0.70489901304245
			],
			"scale":[
				-0.16741161048412323,
				-0.16741161048412323,
				-0.16741161048412323
			],
			"translation":[
				-19.204748153686523,
				6.505612850189209,
				-10.705331802368164
			]
		},
		{
			"mesh":4,
			"name":"Cylinder.016",
			"rotation":[
				0.05583328381180763,
				0.7048990726470947,
				-0.05583328381180763,
				0.70489901304245
			],
			"scale":[
				-0.16741161048412323,
				-0.16741161048412323,
				-0.16741161048412323
			],
			"translation":[
				-18.75396728515625,
				6.438399314880371,
				-10.793805122375488
			]
		},
		{
			"mesh":4,
			"name":"Cylinder.015",
			"rotation":[
				0.05583328381180763,
				0.7048990726470947,
				-0.05583328381180763,
				0.70489901304245
			],
			"scale":[
				-0.16741161048412323,
				-0.16741161048412323,
				-0.16741161048412323
			],
			"translation":[
				-18.84766960144043,
				6.453563690185547,
				-11.008386611938477
			]
		},
		{
			"mesh":4,
			"name":"Cylinder.014",
			"rotation":[
				0.05583328381180763,
				0.7048990726470947,
				-0.05583328381180763,
				0.70489901304245
			],
			"scale":[
				-0.16741161048412323,
				-0.16741161048412323,
				-0.16741161048412323
			],
			"translation":[
				-18.918954849243164,
				6.462656021118164,
				-11.223245620727539
			]
		},
		{
			"mesh":4,
			"name":"Cylinder.013",
			"rotation":[
				0.05583328381180763,
				0.7048990726470947,
				-0.05583328381180763,
				0.70489901304245
			],
			"scale":[
				-0.16741161048412323,
				-0.16741161048412323,
				-0.16741161048412323
			],
			"translation":[
				-18.962697982788086,
				6.473801136016846,
				-11.42809772491455
			]
		},
		{
			"mesh":4,
			"name":"Cylinder.012",
			"rotation":[
				0.05583328381180763,
				0.7048990726470947,
				-0.05583328381180763,
				0.70489901304245
			],
			"scale":[
				-0.16741161048412323,
				-0.16741161048412323,
				-0.16741161048412323
			],
			"translation":[
				-18.476123809814453,
				6.392348289489746,
				-10.850177764892578
			]
		},
		{
			"mesh":4,
			"name":"Cylinder.011",
			"rotation":[
				0.05583328381180763,
				0.7048990726470947,
				-0.05583328381180763,
				0.70489901304245
			],
			"scale":[
				-0.16741161048412323,
				-0.16741161048412323,
				-0.16741161048412323
			],
			"translation":[
				-18.570255279541016,
				6.407346248626709,
				-11.06241226196289
			]
		},
		{
			"mesh":4,
			"name":"Cylinder.010",
			"rotation":[
				0.05583328381180763,
				0.7048990726470947,
				-0.05583328381180763,
				0.70489901304245
			],
			"scale":[
				-0.16741161048412323,
				-0.16741161048412323,
				-0.16741161048412323
			],
			"translation":[
				-18.63178825378418,
				6.418886184692383,
				-11.287945747375488
			]
		},
		{
			"mesh":4,
			"name":"Cylinder.009",
			"rotation":[
				0.05583328381180763,
				0.7048990726470947,
				-0.05583328381180763,
				0.70489901304245
			],
			"scale":[
				-0.16741161048412323,
				-0.16741161048412323,
				-0.16741161048412323
			],
			"translation":[
				-18.676504135131836,
				6.423931121826172,
				-11.4927978515625
			]
		},
		{
			"mesh":4,
			"name":"Cylinder.008",
			"rotation":[
				0.05583328381180763,
				0.7048990726470947,
				-0.05583328381180763,
				0.70489901304245
			],
			"scale":[
				-0.16741161048412323,
				-0.16741161048412323,
				-0.16741161048412323
			],
			"translation":[
				-18.67622947692871,
				6.425665855407715,
				-13.386993408203125
			]
		},
		{
			"mesh":4,
			"name":"Cylinder.007",
			"rotation":[
				0.05583328381180763,
				0.7048990726470947,
				-0.05583328381180763,
				0.70489901304245
			],
			"scale":[
				-0.16741161048412323,
				-0.16741161048412323,
				-0.16741161048412323
			],
			"translation":[
				-18.631881713867188,
				6.418298721313477,
				-13.182141304016113
			]
		},
		{
			"mesh":4,
			"name":"Cylinder.006",
			"rotation":[
				0.05583328381180763,
				0.7048990726470947,
				-0.05583328381180763,
				0.70489901304245
			],
			"scale":[
				-0.16741161048412323,
				-0.16741161048412323,
				-0.16741161048412323
			],
			"translation":[
				-18.570178985595703,
				6.407828330993652,
				-12.956607818603516
			]
		},
		{
			"mesh":4,
			"name":"Cylinder.005",
			"rotation":[
				0.05583328381180763,
				0.7048990726470947,
				-0.05583328381180763,
				0.70489901304245
			],
			"scale":[
				-0.16741161048412323,
				-0.16741161048412323,
				-0.16741161048412323
			],
			"translation":[
				-18.476123809814453,
				6.392348289489746,
				-12.744373321533203
			]
		},
		{
			"mesh":4,
			"name":"Cylinder.004",
			"rotation":[
				0.05583328381180763,
				0.7048990726470947,
				-0.05583328381180763,
				0.70489901304245
			],
			"scale":[
				-0.16741161048412323,
				-0.16741161048412323,
				-0.16741161048412323
			],
			"translation":[
				-18.918405532836914,
				6.466095447540283,
				-13.117441177368164
			]
		},
		{
			"mesh":4,
			"name":"Cylinder.003",
			"rotation":[
				0.05583328381180763,
				0.7048990726470947,
				-0.05583328381180763,
				0.70489901304245
			],
			"scale":[
				-0.16741161048412323,
				-0.16741161048412323,
				-0.16741161048412323
			],
			"translation":[
				-18.84779167175293,
				6.452789783477783,
				-12.902582168579102
			]
		},
		{
			"mesh":4,
			"name":"Cylinder.002",
			"rotation":[
				0.05583328381180763,
				0.7048990726470947,
				-0.05583328381180763,
				0.70489901304245
			],
			"scale":[
				-0.16741161048412323,
				-0.16741161048412323,
				-0.16741161048412323
			],
			"translation":[
				-18.75396728515625,
				6.438399314880371,
				-12.688000679016113
			]
		},
		{
			"mesh":4,
			"name":"Cylinder.001",
			"rotation":[
				0.05583328381180763,
				0.7048990726470947,
				-0.05583328381180763,
				0.70489901304245
			],
			"scale":[
				-0.16741161048412323,
				-0.16741161048412323,
				-0.16741161048412323
			],
			"translation":[
				-18.96261978149414,
				6.474304676055908,
				-13.322293281555176
			]
		},
		{
			"mesh":4,
			"name":"Cylinder.000",
			"rotation":[
				0.05583328381180763,
				0.7048990726470947,
				-0.05583328381180763,
				0.70489901304245
			],
			"scale":[
				-0.16741161048412323,
				-0.16741161048412323,
				-0.16741161048412323
			],
			"translation":[
				-19.204748153686523,
				6.505612850189209,
				-12.599527359008789
			]
		},
		{
			"mesh":5,
			"name":"Cube.013",
			"rotation":[
				0,
				0.7071068286895752,
				0,
				0.7071068286895752
			],
			"scale":[
				1.600000023841858,
				1.600000023841858,
				1.600000023841858
			],
			"translation":[
				-18.649179458618164,
				6.218245506286621,
				-11.879495620727539
			]
		},
		{
			"mesh":6,
			"name":"Cube.012",
			"rotation":[
				0,
				0.7071068286895752,
				0,
				0.7071068286895752
			],
			"scale":[
				1.600000023841858,
				1.600000023841858,
				1.600000023841858
			],
			"translation":[
				-20.0793514251709,
				7.206096649169922,
				-11.879657745361328
			]
		},
		{
			"mesh":7,
			"name":"Cube.011",
			"rotation":[
				0,
				0.7071068286895752,
				0,
				0.7071068286895752
			],
			"scale":[
				1.600000023841858,
				1.600000023841858,
				1.600000023841858
			],
			"translation":[
				-18.649179458618164,
				6.218245506286621,
				-11.879495620727539
			]
		},
		{
			"mesh":8,
			"name":"Cube.010",
			"rotation":[
				0,
				0.7071068286895752,
				0,
				0.7071068286895752
			],
			"scale":[
				1.600000023841858,
				1.600000023841858,
				1.600000023841858
			],
			"translation":[
				-20.0793514251709,
				7.206096649169922,
				-11.879657745361328
			]
		}
	],
	"materials":[
		{
			"doubleSided":true,
			"emissiveFactor":[
				1,
				1,
				1
			],
			"emissiveTexture":{
				"index":0
			},
			"extensions":{
				"KHR_materials_emissive_strength":{
					"emissiveStrength":14.799997329711914
				}
			},
			"name":"Material.229",
			"pbrMetallicRoughness":{
				"baseColorFactor":[
					0,
					0,
					0,
					1
				]
			}
		},
		{
			"doubleSided":true,
			"name":"palanque",
			"pbrMetallicRoughness":{
				"baseColorFactor":[
					0.8000000715255737,
					0.02149721421301365,
					0.023250849917531013,
					1
				],
				"metallicFactor":0,
				"roughnessFactor":0.5
			}
		},
		{
			"doubleSided":true,
			"emissiveFactor":[
				0.032295362158137664,
				0.032295362158137664,
				0.032295362158137664
			],
			"name":"buttons",
			"pbrMetallicRoughness":{
				"baseColorFactor":[
					0.748285710811615,
					0.8000000715255737,
					0.007795635610818863,
					1
				],
				"metallicFactor":0,
				"roughnessFactor":0.5
			}
		},
		{
			"doubleSided":true,
			"name":"Caixa",
			"pbrMetallicRoughness":{
				"baseColorTexture":{
					"index":1
				},
				"metallicFactor":0,
				"roughnessFactor":0.5
			}
		},
		{
			"doubleSided":true,
			"name":"ParteFrontal",
			"pbrMetallicRoughness":{
				"baseColorTexture":{
					"index":2
				},
				"metallicFactor":0,
				"roughnessFactor":0.5
			}
		}
	],
	"meshes":[
		{
			"name":"Plane",
			"primitives":[
				{
					"attributes":{
						"POSITION":0,
						"TEXCOORD_0":1,
						"NORMAL":2
					},
					"indices":3,
					"material":0
				}
			]
		},
		{
			"name":"Cylinder.008",
			"primitives":[
				{
					"attributes":{
						"POSITION":4,
						"TEXCOORD_0":5,
						"NORMAL":6
					},
					"indices":7,
					"material":1
				}
			]
		},
		{
			"name":"Cylinder.007",
			"primitives":[
				{
					"attributes":{
						"POSITION":8,
						"TEXCOORD_0":9,
						"NORMAL":10
					},
					"indices":11,
					"material":2
				}
			]
		},
		{
			"name":"Cylinder",
			"primitives":[
				{
					"attributes":{
						"POSITION":12,
						"TEXCOORD_0":13,
						"NORMAL":14
					},
					"indices":7,
					"material":1
				}
			]
		},
		{
			"name":"Cylinder.009",
			"primitives":[
				{
					"attributes":{
						"POSITION":15,
						"TEXCOORD_0":16,
						"NORMAL":17
					},
					"indices":11,
					"material":2
				}
			]
		},
		{
			"name":"Cube.644",
			"primitives":[
				{
					"attributes":{
						"POSITION":18,
						"TEXCOORD_0":19,
						"NORMAL":20
					},
					"indices":21,
					"material":3
				}
			]
		},
		{
			"name":"Cube.643",
			"primitives":[
				{
					"attributes":{
						"POSITION":22,
						"TEXCOORD_0":23,
						"NORMAL":24
					},
					"indices":25,
					"material":4
				}
			]
		},
		{
			"name":"Cube.642",
			"primitives":[
				{
					"attributes":{
						"POSITION":26,
						"TEXCOORD_0":27,
						"NORMAL":28
					},
					"indices":21,
					"material":3
				}
			]
		},
		{
			"name":"Cube.641",
			"primitives":[
				{
					"attributes":{
						"POSITION":29,
						"TEXCOORD_0":30,
						"NORMAL":31
					},
					"indices":25,
					"material":4
				}
			]
		}
	],
	"textures":[
		{
			"sampler":0,
			"source":0
		},
		{
			"sampler":0,
			"source":1
		},
		{
			"sampler":0,
			"source":2
		}
	],
	"images":[
		{
			"bufferView":4,
			"mimeType":"image/png",
			"name":"hot-hot-hollywood"
		},
		{
			"bufferView":23,
			"mimeType":"image/png",
			"name":"caixa_tex_color"
		},
		{
			"bufferView":28,
			"mimeType":"image/png",
			"name":"Arcade_tex_color_bet-machine"
		}
	],
	"accessors":[
		{
			"bufferView":0,
			"componentType":5126,
			"count":4,
			"max":[
				1,
				0,
				1
			],
			"min":[
				-1,
				0,
				-1
			],
			"type":"VEC3"
		},
		{
			"bufferView":1,
			"componentType":5126,
			"count":4,
			"type":"VEC2"
		},
		{
			"bufferView":2,
			"componentType":5126,
			"count":4,
			"type":"VEC3"
		},
		{
			"bufferView":3,
			"componentType":5123,
			"count":6,
			"type":"SCALAR"
		},
		{
			"bufferView":5,
			"componentType":5126,
			"count":183,
			"max":[
				0.6919342279434204,
				4.085783004760742,
				0.667778491973877
			],
			"min":[
				-0.6919342279434204,
				-4.497287750244141,
				-0.7160900235176086
			],
			"type":"VEC3"
		},
		{
			"bufferView":6,
			"componentType":5126,
			"count":183,
			"type":"VEC2"
		},
		{
			"bufferView":7,
			"componentType":5126,
			"count":183,
			"type":"VEC3"
		},
		{
			"bufferView":8,
			"componentType":5123,
			"count":900,
			"type":"SCALAR"
		},
		{
			"bufferView":9,
			"componentType":5126,
			"count":53,
			"max":[
				0.5752916932106018,
				0.16617852449417114,
				0.5791049003601074
			],
			"min":[
				-0.5752916932106018,
				-0.12872648239135742,
				-0.576528787612915
			],
			"type":"VEC3"
		},
		{
			"bufferView":10,
			"componentType":5126,
			"count":53,
			"type":"VEC2"
		},
		{
			"bufferView":11,
			"componentType":5126,
			"count":53,
			"type":"VEC3"
		},
		{
			"bufferView":12,
			"componentType":5123,
			"count":252,
			"type":"SCALAR"
		},
		{
			"bufferView":13,
			"componentType":5126,
			"count":183,
			"max":[
				0.6919342279434204,
				4.085783004760742,
				0.667778491973877
			],
			"min":[
				-0.6919342279434204,
				-4.497287750244141,
				-0.7160900235176086
			],
			"type":"VEC3"
		},
		{
			"bufferView":14,
			"componentType":5126,
			"count":183,
			"type":"VEC2"
		},
		{
			"bufferView":15,
			"componentType":5126,
			"count":183,
			"type":"VEC3"
		},
		{
			"bufferView":16,
			"componentType":5126,
			"count":53,
			"max":[
				0.5752916932106018,
				0.16617852449417114,
				0.5791049003601074
			],
			"min":[
				-0.5752916932106018,
				-0.12872648239135742,
				-0.576528787612915
			],
			"type":"VEC3"
		},
		{
			"bufferView":17,
			"componentType":5126,
			"count":53,
			"type":"VEC2"
		},
		{
			"bufferView":18,
			"componentType":5126,
			"count":53,
			"type":"VEC3"
		},
		{
			"bufferView":19,
			"componentType":5126,
			"count":224,
			"max":[
				1.2562270164489746,
				0.20436158776283264,
				0.5087165236473083
			],
			"min":[
				-1.25602388381958,
				-0.3214278519153595,
				-0.6376286149024963
			],
			"type":"VEC3"
		},
		{
			"bufferView":20,
			"componentType":5126,
			"count":224,
			"type":"VEC2"
		},
		{
			"bufferView":21,
			"componentType":5126,
			"count":224,
			"type":"VEC3"
		},
		{
			"bufferView":22,
			"componentType":5123,
			"count":408,
			"type":"SCALAR"
		},
		{
			"bufferView":24,
			"componentType":5126,
			"count":362,
			"max":[
				1.2110185623168945,
				2.3323652744293213,
				1.3643851280212402
			],
			"min":[
				-1.2110185623168945,
				-4.5016560554504395,
				-1.281339168548584
			],
			"type":"VEC3"
		},
		{
			"bufferView":25,
			"componentType":5126,
			"count":362,
			"type":"VEC2"
		},
		{
			"bufferView":26,
			"componentType":5126,
			"count":362,
			"type":"VEC3"
		},
		{
			"bufferView":27,
			"componentType":5123,
			"count":852,
			"type":"SCALAR"
		},
		{
			"bufferView":29,
			"componentType":5126,
			"count":224,
			"max":[
				1.2562270164489746,
				0.20436158776283264,
				0.5087165236473083
			],
			"min":[
				-1.25602388381958,
				-0.3214278519153595,
				-0.6376286149024963
			],
			"type":"VEC3"
		},
		{
			"bufferView":30,
			"componentType":5126,
			"count":224,
			"type":"VEC2"
		},
		{
			"bufferView":31,
			"componentType":5126,
			"count":224,
			"type":"VEC3"
		},
		{
			"bufferView":32,
			"componentType":5126,
			"count":362,
			"max":[
				1.2110185623168945,
				2.3323652744293213,
				1.3643851280212402
			],
			"min":[
				-1.2110185623168945,
				-4.5016560554504395,
				-1.281339168548584
			],
			"type":"VEC3"
		},
		{
			"bufferView":33,
			"componentType":5126,
			"count":362,
			"type":"VEC2"
		},
		{
			"bufferView":34,
			"componentType":5126,
			"count":362,
			"type":"VEC3"
		}
	],
	"bufferViews":[
		{
			"buffer":0,
			"byteLength":48,
			"byteOffset":0,
			"target":34962
		},
		{
			"buffer":0,
			"byteLength":32,
			"byteOffset":48,
			"target":34962
		},
		{
			"buffer":0,
			"byteLength":48,
			"byteOffset":80,
			"target":34962
		},
		{
			"buffer":0,
			"byteLength":12,
			"byteOffset":128,
			"target":34963
		},
		{
			"buffer":0,
			"byteLength":187826,
			"byteOffset":140
		},
		{
			"buffer":0,
			"byteLength":2196,
			"byteOffset":187968,
			"target":34962
		},
		{
			"buffer":0,
			"byteLength":1464,
			"byteOffset":190164,
			"target":34962
		},
		{
			"buffer":0,
			"byteLength":2196,
			"byteOffset":191628,
			"target":34962
		},
		{
			"buffer":0,
			"byteLength":1800,
			"byteOffset":193824,
			"target":34963
		},
		{
			"buffer":0,
			"byteLength":636,
			"byteOffset":195624,
			"target":34962
		},
		{
			"buffer":0,
			"byteLength":424,
			"byteOffset":196260,
			"target":34962
		},
		{
			"buffer":0,
			"byteLength":636,
			"byteOffset":196684,
			"target":34962
		},
		{
			"buffer":0,
			"byteLength":504,
			"byteOffset":197320,
			"target":34963
		},
		{
			"buffer":0,
			"byteLength":2196,
			"byteOffset":197824,
			"target":34962
		},
		{
			"buffer":0,
			"byteLength":1464,
			"byteOffset":200020,
			"target":34962
		},
		{
			"buffer":0,
			"byteLength":2196,
			"byteOffset":201484,
			"target":34962
		},
		{
			"buffer":0,
			"byteLength":636,
			"byteOffset":203680,
			"target":34962
		},
		{
			"buffer":0,
			"byteLength":424,
			"byteOffset":204316,
			"target":34962
		},
		{
			"buffer":0,
			"byteLength":636,
			"byteOffset":204740,
			"target":34962
		},
		{
			"buffer":0,
			"byteLength":2688,
			"byteOffset":205376,
			"target":34962
		},
		{
			"buffer":0,
			"byteLength":1792,
			"byteOffset":208064,
			"target":34962
		},
		{
			"buffer":0,
			"byteLength":2688,
			"byteOffset":209856,
			"target":34962
		},
		{
			"buffer":0,
			"byteLength":816,
			"byteOffset":212544,
			"target":34963
		},
		{
			"buffer":0,
			"byteLength":376842,
			"byteOffset":213360
		},
		{
			"buffer":0,
			"byteLength":4344,
			"byteOffset":590204,
			"target":34962
		},
		{
			"buffer":0,
			"byteLength":2896,
			"byteOffset":594548,
			"target":34962
		},
		{
			"buffer":0,
			"byteLength":4344,
			"byteOffset":597444,
			"target":34962
		},
		{
			"buffer":0,
			"byteLength":1704,
			"byteOffset":601788,
			"target":34963
		},
		{
			"buffer":0,
			"byteLength":983425,
			"byteOffset":603492
		},
		{
			"buffer":0,
			"byteLength":2688,
			"byteOffset":1586920,
			"target":34962
		},
		{
			"buffer":0,
			"byteLength":1792,
			"byteOffset":1589608,
			"target":34962
		},
		{
			"buffer":0,
			"byteLength":2688,
			"byteOffset":1591400,
			"target":34962
		},
		{
			"buffer":0,
			"byteLength":4344,
			"byteOffset":1594088,
			"target":34962
		},
		{
			"buffer":0,
			"byteLength":2896,
			"byteOffset":1598432,
			"target":34962
		},
		{
			"buffer":0,
			"byteLength":4344,
			"byteOffset":1601328,
			"target":34962
		}
	],
	"samplers":[
		{
			"magFilter":9729,
			"minFilter":9987
		}
	],
	"buffers":[
		{
			"byteLength":1605672,
			"uri":"data:application/octet-stream;base64,"
		}
	]
}
